<svg version="1.0" fill="white" xmlns="http://www.w3.org/2000/svg" viewBox="0 0 1500 1125"><path d="M777.6 31.6c-8.2 2.6-15.3 8.2-19.8 15.5-2.1 3.3-4.8 12.4-4.8 15.9 0 2.6.2 2.7 4.9 2.6l4.9-.1.7-4.1c1.2-7.9 6.2-15.1 13-18.7 4.8-2.5 14.3-2.7 19.5-.5 7.6 3.2 13 11.3 13 19.2 0 10.7-2.6 14.4-34.1 48.5-12.9 13.9-23.5 25.7-23.7 26.2-.2.5 14.5.9 34.7.9H821v-10l-16.7-.1c-27.3-.2-30.3-.3-30.1-1 .2-.3 6.9-7.8 15-16.5 19.5-21.2 22.3-24.6 26.5-33.2 3.2-6.4 3.6-8.1 3.6-14.5-.1-9.9-2.8-16.1-10.3-23-3.4-3.2-7.3-5.8-9.8-6.5-6.9-2.1-16.2-2.4-21.6-.6zM689.2 38l-3.1 5h15.6l.6 11.7c.4 6.5.6 22.8.6 36.3-.1 13.5 0 29.3 0 35.2l.1 10.8h10V33H692.3l-3.1 5zM489 106.6c-5.2 3.1-9.9 5.9-10.4 6.4-.9.9.5 3.4 19.9 37 6.5 11.3 14 24.4 16.7 29.2 2.7 4.8 5.3 9 5.6 9.2.6.3 19.2-10.1 20.7-11.6.3-.3-7.8-15.1-18.1-32.9-10.2-17.8-20-34.8-21.6-37.7-1.6-2.8-3.1-5.2-3.1-5.2-.1.1-4.5 2.6-9.7 5.6zM999 119.8c-5.7 9.7-12.2 20.8-14.5 24.7-11.4 19.2-18.7 32.7-17.9 33.4.5.4 5.3 3.3 10.6 6.4l9.7 5.6 3.2-5.7c1.8-3.1 8.5-14.7 14.9-25.7 16.8-28.8 25-43.2 25-43.8 0-.5-6.1-4.3-16.1-10l-4.7-2.6-10.2 17.7zM1184 306.1c-12.4 7.2-28.8 16.7-36.5 21.1-7.7 4.5-14.2 8.2-14.3 8.4-.3.2 10.2 19.8 11.4 21.3.2.2 8.3-4.3 18.1-10 9.8-5.6 26.4-15.2 36.8-21.2 10.5-6 19.4-11.3 19.8-11.7 1-.9-10.3-21-11.8-20.9-.5 0-11.1 5.8-23.5 13zM291 304.7c-3 5.3-5.6 10-5.8 10.4-.2.6 48.3 28.9 70.3 41l5.1 2.8 5.8-10.5c3.4-6 5.5-10.9 5-11.3-1.6-1.4-73.1-42.1-74-42.1-.5 0-3.4 4.4-6.4 9.7zM256.2 524c-20.5 4.2-31.5 26.7-22.3 45.5 3.6 7.2 7.2 10.7 15 14.3 4.6 2.1 6.4 2.4 13.2 2 5.6-.3 7.6-.1 7 .6-1.6 2.1-26.1 39.7-26.1 40.1 0 1.2 8.2 5.7 8.9 4.9 2.3-2.4 35.2-52.7 37.4-57 5-10 6.2-21.2 3.2-30.3-2.2-6.7-9.9-15.2-16.2-17.9-5.8-2.4-14.3-3.3-20.1-2.2zm15.6 11.9c14.6 7.5 16.5 27 3.5 36.8-7.6 5.7-18.7 5.5-26.3-.6-12.4-9.9-10-29.5 4.5-36.2 5.3-2.5 13.5-2.4 18.3 0zM1231 524.4c-9 2.3-15.3 7.8-19.6 17.1-3.7 7.7-3.4 8.5 3.1 8.5 3.9 0 5.5-.4 5.5-1.3 0-3 6.1-10.7 9.9-12.7 6.1-3.1 14.5-2.8 19.9.7 8.3 5.4 10.3 15.5 4.4 22.5-3.3 3.9-11.5 7.8-16.4 7.8h-3.8v9.8l5.6.7c11.7 1.4 18.7 5.8 22.5 14 5.9 12.7-3.7 28.2-18.7 30.1-7.4.9-11.8 0-17.3-3.4-4.6-2.8-10-10.6-10.1-14.5 0-1.4-.9-1.7-5.5-1.7-5.5 0-5.5 0-4.9 2.7 1.3 5.7 6.3 15.1 9.9 18.6 6.6 6.4 11.6 8.2 23 8.2 12.3 0 17.9-1.9 24.8-8.4 14.2-13.2 14.7-34.1 1.1-46-2-1.8-4.7-3.7-6-4.3-2.3-1.1-2.3-1.1 2.6-5.7 13.2-12.5 8.5-33.3-9.4-41.1-5.3-2.4-14.8-3.1-20.6-1.6zM745.7 547.5c-10.5 3.7-15.5 15.8-10.8 26 5 11 18.6 14.7 28.5 7.8 8.5-5.9 10.8-18.2 5.1-26.5-5.3-7.6-14.1-10.4-22.8-7.3zM1142.3 785.7c-8.9 14.2-9.5 15.5-8.1 16.8 2.3 2.1 73.7 42.9 74.2 42.4.2-.2 2.9-4.8 6.1-10.2 4.8-8.2 5.5-10.1 4.4-11.1-.8-.7-7.9-5-15.9-9.6-47.7-27.5-57.3-33-57.5-33-.2 0-1.6 2.1-3.2 4.7zM352.5 787.9c-9.9 5.9-21.5 12.6-46.3 27.1L287 826.2l1.8 3.1c1.1 1.8 3.8 6.5 6.1 10.4 2.3 4 4.5 7.3 4.8 7.3.6 0 3-1.4 32.3-18.5 28.9-16.8 42-24.7 42-25.2 0-1.6-11.4-20.3-12.4-20.2-.6 0-4.7 2.2-9.1 4.8zM976.8 953.9c-5.4 3.2-10.1 6-10.4 6.4-.4.3 5.1 10.4 12.1 22.4l20.3 34.8c4.1 7.1 8.2 14.2 9.1 15.6l1.6 2.7 10-5.9c5.5-3.2 10.1-6.3 10.3-6.8.2-.5-3.6-7.6-8.4-15.7-4.8-8.2-12.1-20.8-16.2-27.9-10.2-17.8-18.3-31.5-18.5-31.4-.1 0-4.6 2.6-9.9 5.8zM519 952.7c-17.7 29.9-41 71.7-40.3 72.3.4.5 5.2 3.3 10.5 6.3l9.7 5.5 5.9-10.1c17.2-29.6 37.2-64.5 37.2-65.1 0-.2-3.7-2.6-8.2-5.2-4.6-2.6-9.3-5.3-10.4-6.1-2-1.3-2.3-1.1-4.4 2.4zM746.3 1019.3c-10 14.9-19.3 29.7-20.7 32.7-6.3 14-5.1 27.3 3.4 38.1 3.9 4.9 13.8 9.8 21.2 10.6 11.9 1.2 26.6-6.5 31.7-16.6 8-15.8 2.1-35.2-13.3-43.4-3.3-1.8-5.8-2.2-12.8-2.2-4.9 0-8.8-.2-8.8-.4s5.9-9.3 13-20.1c7.2-10.8 13-19.9 13-20.3 0-.6-7.5-5.7-8.2-5.7-.2 0-8.5 12.3-18.5 27.3zm18.3 31.2c6.2 3.6 9.4 8.9 10.1 16.4 1.4 15.1-11.3 25.7-27.2 22.7-4.5-.9-11.2-6.8-13.6-12.1-8.7-19 12.6-37.6 30.7-27z"/></svg>